<svg viewBox="0 0 980 480" xmlns="http://www.w3.org/2000/svg" font-family="'Segoe UI', system-ui, sans-serif">
  <defs>
    <linearGradient id="bg-main" x1="0" y1="0" x2="0" y2="1">
      <stop offset="0%" stop-color="#0f172a"/>
      <stop offset="100%" stop-color="#020617"/>
    </linearGradient>
    <linearGradient id="banner-grad" x1="0" y1="0" x2="0" y2="1">
      <stop offset="0%" stop-color="#1e0a0a"/>
      <stop offset="100%" stop-color="#0f0505"/>
    </linearGradient>
    <linearGradient id="card-violet" x1="0" y1="0" x2="0" y2="1">
      <stop offset="0%" stop-color="#2e1065"/>
      <stop offset="100%" stop-color="#1e0a3c"/>
    </linearGradient>
    <linearGradient id="card-red" x1="0" y1="0" x2="0" y2="1">
      <stop offset="0%" stop-color="#450a0a"/>
      <stop offset="100%" stop-color="#1a0000"/>
    </linearGradient>
    <linearGradient id="card-amber" x1="0" y1="0" x2="0" y2="1">
      <stop offset="0%" stop-color="#451a03"/>
      <stop offset="100%" stop-color="#1c0a00"/>
    </linearGradient>
    <linearGradient id="card-blue" x1="0" y1="0" x2="0" y2="1">
      <stop offset="0%" stop-color="#0c1a3d"/>
      <stop offset="100%" stop-color="#060d1f"/>
    </linearGradient>
    <pattern id="grid2" width="30" height="30" patternUnits="userSpaceOnUse">
      <path d="M 30 0 L 0 0 0 30" fill="none" stroke="#1e293b" stroke-width="0.4"/>
    </pattern>
  </defs>

  <!-- Background -->
  <rect width="980" height="480" fill="url(#bg-main)" rx="12"/>
  <rect width="980" height="480" fill="url(#grid2)" opacity="0.4"/>

  <!-- Header bar -->
  <rect x="0" y="0" width="980" height="42" rx="12" fill="#0f172a"/>
  <rect x="0" y="30" width="980" height="12" fill="#0f172a"/>
  <text x="20" y="25" fill="#f1f5f9" font-size="13" font-weight="700">TriageAnalysis — Sample Output</text>
  <text x="490" y="25" text-anchor="middle" fill="#475569" font-size="10">AgentReliabilityLab Pipeline v1.0.0  ·  LangGraph Agentic Cyber Alert Triage</text>
  <text x="960" y="25" text-anchor="end" fill="#334155" font-size="9">DEMO RECORD</text>

  <!-- ============================================================ -->
  <!-- TOP BANNER (y=44 to y=154): Alert summary row -->
  <!-- ============================================================ -->
  <rect x="10" y="44" width="960" height="108" rx="8" fill="url(#banner-grad)" stroke="#991b1b" stroke-width="1.5"/>

  <!-- LEFT BLOCK: ESCALATE badge + severity -->
  <rect x="22" y="56" width="100" height="34" rx="6" fill="#dc2626"/>
  <text x="72" y="70" text-anchor="middle" fill="#fff" font-size="11" font-weight="800" letter-spacing="1">ESCALATE</text>
  <text x="72" y="83" text-anchor="middle" fill="#fecaca" font-size="9">SOC Tier 2</text>

  <text x="22" y="108" fill="#ef4444" font-size="11" font-weight="700" letter-spacing="1">SEVERITY</text>
  <text x="22" y="123" fill="#f87171" font-size="22" font-weight="800">HIGH</text>
  <text x="22" y="140" fill="#fca5a5" font-size="10">Confidence: <tspan fill="#fff" font-weight="700">0.82</tspan>  (band: HIGH)</text>

  <!-- CENTER BLOCK: Alert details -->
  <line x1="155" y1="55" x2="155" y2="145" stroke="#991b1b" stroke-width="0.8"/>
  <text x="490" y="72" text-anchor="middle" fill="#f1f5f9" font-size="16" font-weight="700">PowerShell Lateral Movement Detected</text>
  <text x="490" y="90" text-anchor="middle" fill="#94a3b8" font-size="11">DESKTOP-ABC  ·  psexec spawned  ·  192.168.1.45</text>
  <text x="490" y="106" text-anchor="middle" fill="#64748b" font-size="9.5">Source: EDR  ·  Alert-ID: ALERT-B7E24A1F  ·  Ingested: 2024-03-15T14:32:07Z  ·  Host: DESKTOP-ABC</text>

  <!-- Technique pills -->
  <rect x="305" y="116" width="90" height="20" rx="10" fill="#1a0a2e" stroke="#8b5cf6" stroke-width="1"/>
  <text x="350" y="130" text-anchor="middle" fill="#c4b5fd" font-size="9" font-weight="600">T1059.001</text>
  <rect x="403" y="116" width="90" height="20" rx="10" fill="#1a0a2e" stroke="#8b5cf6" stroke-width="1"/>
  <text x="448" y="130" text-anchor="middle" fill="#c4b5fd" font-size="9" font-weight="600">T1569.002</text>
  <rect x="501" y="116" width="80" height="20" rx="10" fill="#0a1a0a" stroke="#16a34a" stroke-width="1"/>
  <text x="541" y="130" text-anchor="middle" fill="#86efac" font-size="9" font-weight="600">execution</text>
  <rect x="589" y="116" width="110" height="20" rx="10" fill="#0a1a0a" stroke="#16a34a" stroke-width="1"/>
  <text x="644" y="130" text-anchor="middle" fill="#86efac" font-size="9" font-weight="600">lateral-movement</text>

  <!-- RIGHT BLOCK: Meta -->
  <line x1="730" y1="55" x2="730" y2="145" stroke="#991b1b" stroke-width="0.8"/>
  <rect x="740" y="55" width="220" height="90" rx="6" fill="#0f172a" stroke="#1e293b" stroke-width="1"/>
  <text x="855" y="73" text-anchor="middle" fill="#64748b" font-size="9" letter-spacing="0.5">PIPELINE METRICS</text>
  <text x="755" y="89" fill="#94a3b8" font-size="9">Tokens:</text>
  <text x="950" y="89" text-anchor="end" fill="#f1f5f9" font-size="9" font-weight="600">1,243</text>
  <text x="755" y="103" fill="#94a3b8" font-size="9">Latency:</text>
  <text x="950" y="103" text-anchor="end" fill="#f1f5f9" font-size="9" font-weight="600">2,840 ms</text>
  <text x="755" y="117" fill="#94a3b8" font-size="9">Audit ID:</text>
  <text x="950" y="117" text-anchor="end" fill="#fbbf24" font-size="9" font-weight="600">AUDIT-B7E2</text>
  <text x="755" y="131" fill="#94a3b8" font-size="9">Retrieval loops:</text>
  <text x="950" y="131" text-anchor="end" fill="#a78bfa" font-size="9" font-weight="600">1 (re-retrieved)</text>

  <!-- ============================================================ -->
  <!-- 4 CARDS: y=164, height=220 -->
  <!-- Card widths: ~228px each with 10px gaps -->
  <!-- x positions: 10, 248, 486, 724 -->
  <!-- ============================================================ -->

  <!-- CARD 1: RAG CONTEXT (violet) -->
  <rect x="10" y="164" width="228" height="218" rx="8" fill="url(#card-violet)" stroke="#7c3aed" stroke-width="1.5"/>
  <rect x="10" y="164" width="228" height="7" rx="4" fill="#7c3aed"/>
  <text x="24" y="187" fill="#ddd6fe" font-size="10" font-weight="700" letter-spacing="0.5">RAG CONTEXT</text>
  <line x1="20" y1="194" x2="228" y2="194" stroke="#4c1d95" stroke-width="0.8"/>
  <text x="24" y="210" fill="#c4b5fd" font-size="9">Chunks retrieved:</text>
  <text x="230" y="210" text-anchor="end" fill="#f1f5f9" font-size="9" font-weight="700">8</text>
  <text x="24" y="225" fill="#c4b5fd" font-size="9">Sources:</text>
  <text x="230" y="225" text-anchor="end" fill="#a78bfa" font-size="9">MITRE(4) + NIST(2) + CISA(2)</text>
  <text x="24" y="240" fill="#c4b5fd" font-size="9">Reranker:</text>
  <text x="230" y="240" text-anchor="end" fill="#f1f5f9" font-size="9">ms-marco-MiniLM-L-6-v2</text>
  <text x="24" y="255" fill="#c4b5fd" font-size="9">Sparse:</text>
  <text x="230" y="255" text-anchor="end" fill="#f1f5f9" font-size="9">BM25 (rank-bm25)</text>
  <text x="24" y="270" fill="#c4b5fd" font-size="9">Dense:</text>
  <text x="230" y="270" text-anchor="end" fill="#f1f5f9" font-size="9">ChromaDB all-MiniLM-L6-v2</text>
  <line x1="20" y1="278" x2="228" y2="278" stroke="#4c1d95" stroke-width="0.8"/>
  <text x="24" y="293" fill="#a78bfa" font-size="8.5" font-weight="600">Top chunk:</text>
  <text x="24" y="307" fill="#8b5cf6" font-size="8" font-style="italic">"T1059.001 PowerShell abuse —</text>
  <text x="24" y="319" fill="#8b5cf6" font-size="8" font-style="italic"> adversaries use PowerShell to</text>
  <text x="24" y="331" fill="#8b5cf6" font-size="8" font-style="italic"> execute malicious commands..."</text>
  <text x="24" y="346" fill="#6d28d9" font-size="8">MITRE ATT&amp;CK v14 · chunk_id: MIT-0x7FA2</text>
  <text x="24" y="360" fill="#7c3aed" font-size="8">Re-retrieval refined query: "psexec lateral"</text>
  <text x="24" y="374" fill="#a78bfa" font-size="8" font-weight="600">Loop 1 triggered → requires_more_context</text>

  <!-- CARD 2: LLM ANALYSIS (red) -->
  <rect x="248" y="164" width="228" height="218" rx="8" fill="url(#card-red)" stroke="#dc2626" stroke-width="1.5"/>
  <rect x="248" y="164" width="228" height="7" rx="4" fill="#dc2626"/>
  <text x="262" y="187" fill="#fecaca" font-size="10" font-weight="700" letter-spacing="0.5">LLM ANALYSIS</text>
  <line x1="258" y1="194" x2="466" y2="194" stroke="#7f1d1d" stroke-width="0.8"/>
  <text x="262" y="210" fill="#fca5a5" font-size="9">Model:</text>
  <text x="468" y="210" text-anchor="end" fill="#f1f5f9" font-size="9">local LM Studio (OpenAI-compat)</text>
  <text x="262" y="225" fill="#fca5a5" font-size="9">Techniques:</text>
  <text x="468" y="225" text-anchor="end" fill="#f87171" font-size="9" font-weight="700">T1059.001, T1569.002</text>
  <text x="262" y="240" fill="#fca5a5" font-size="9">Tactics:</text>
  <text x="468" y="240" text-anchor="end" fill="#f1f5f9" font-size="9">execution, lateral-movement</text>
  <text x="262" y="255" fill="#fca5a5" font-size="9">JSON recovery:</text>
  <text x="468" y="255" text-anchor="end" fill="#f1f5f9" font-size="9">3-pass · Pass 1 success</text>
  <text x="262" y="270" fill="#fca5a5" font-size="9">requires_more_context:</text>
  <text x="468" y="270" text-anchor="end" fill="#fbbf24" font-size="9" font-weight="700">True (loop 1)</text>
  <line x1="258" y1="278" x2="466" y2="278" stroke="#7f1d1d" stroke-width="0.8"/>
  <text x="262" y="293" fill="#ef4444" font-size="9" font-weight="700">Hard override check:</text>
  <rect x="262" y="298" width="196" height="20" rx="4" fill="#052e16" stroke="#16a34a" stroke-width="1"/>
  <text x="360" y="312" text-anchor="middle" fill="#86efac" font-size="8.5" font-weight="600">No T1486 / T1490 / T1485 — none triggered</text>
  <text x="262" y="332" fill="#fca5a5" font-size="8.5">TriageAnalysis schema: Pydantic v2</text>
  <text x="262" y="346" fill="#fca5a5" font-size="8.5">severity_raw: HIGH → confirmed HIGH</text>
  <text x="262" y="360" fill="#fca5a5" font-size="8.5">confidence_raw: 0.82 → threshold ✓</text>
  <text x="262" y="374" fill="#ef4444" font-size="8" font-style="italic">Tokens: 1,243 · Prompt+completion</text>

  <!-- CARD 3: IOC INDICATORS (amber) -->
  <rect x="486" y="164" width="228" height="218" rx="8" fill="url(#card-amber)" stroke="#d97706" stroke-width="1.5"/>
  <rect x="486" y="164" width="228" height="7" rx="4" fill="#d97706"/>
  <text x="500" y="187" fill="#fde68a" font-size="10" font-weight="700" letter-spacing="0.5">IOC INDICATORS</text>
  <line x1="496" y1="194" x2="704" y2="194" stroke="#92400e" stroke-width="0.8"/>

  <!-- IOC rows -->
  <rect x="496" y="200" width="208" height="24" rx="4" fill="#1c0a00" stroke="#f59e0b" stroke-width="0.8"/>
  <text x="504" y="216" fill="#fbbf24" font-size="9.5" font-weight="600">DESKTOP-ABC</text>
  <text x="700" y="216" text-anchor="end" fill="#64748b" font-size="8.5">hostname</text>

  <rect x="496" y="229" width="208" height="24" rx="4" fill="#1c0a00" stroke="#f59e0b" stroke-width="0.8"/>
  <text x="504" y="245" fill="#fbbf24" font-size="9.5" font-weight="600">psexec.exe</text>
  <text x="700" y="245" text-anchor="end" fill="#64748b" font-size="8.5">process</text>

  <rect x="496" y="258" width="208" height="24" rx="4" fill="#1c0a00" stroke="#f59e0b" stroke-width="0.8"/>
  <text x="504" y="274" fill="#fbbf24" font-size="9.5" font-weight="600">192.168.1.45</text>
  <text x="700" y="274" text-anchor="end" fill="#64748b" font-size="8.5">internal IP</text>

  <line x1="496" y1="290" x2="704" y2="290" stroke="#92400e" stroke-width="0.8"/>

  <rect x="496" y="296" width="208" height="20" rx="4" fill="#052e16" stroke="#16a34a" stroke-width="1"/>
  <text x="600" y="310" text-anchor="middle" fill="#86efac" font-size="8.5" font-weight="600">No external C2 IP detected</text>

  <text x="496" y="330" fill="#fcd34d" font-size="8.5">Network scope: internal subnet only</text>
  <text x="496" y="344" fill="#fcd34d" font-size="8.5">Lateral movement: confirmed (psexec)</text>
  <text x="496" y="358" fill="#fcd34d" font-size="8.5">Credential use: potential (T1569.002)</text>
  <text x="496" y="372" fill="#92400e" font-size="8" font-style="italic">IOCs extracted from LLM TriageAnalysis</text>

  <!-- CARD 4: NIST CONTROLS (blue) -->
  <rect x="724" y="164" width="246" height="218" rx="8" fill="url(#card-blue)" stroke="#2563eb" stroke-width="1.5"/>
  <rect x="724" y="164" width="246" height="7" rx="4" fill="#2563eb"/>
  <text x="738" y="187" fill="#bfdbfe" font-size="10" font-weight="700" letter-spacing="0.5">NIST CONTROLS &amp; CITATIONS</text>
  <line x1="734" y1="194" x2="960" y2="194" stroke="#1d4ed8" stroke-width="0.8"/>

  <!-- Control rows -->
  <rect x="734" y="200" width="226" height="24" rx="4" fill="#060d1f" stroke="#3b82f6" stroke-width="0.8"/>
  <text x="742" y="212" fill="#60a5fa" font-size="9" font-weight="700">PR.AC-4</text>
  <text x="742" y="222" fill="#93c5fd" font-size="8">Access permissions management</text>

  <rect x="734" y="229" width="226" height="24" rx="4" fill="#060d1f" stroke="#3b82f6" stroke-width="0.8"/>
  <text x="742" y="241" fill="#60a5fa" font-size="9" font-weight="700">DE.AE-2</text>
  <text x="742" y="251" fill="#93c5fd" font-size="8">Anomaly and event analysis</text>

  <rect x="734" y="258" width="226" height="24" rx="4" fill="#060d1f" stroke="#3b82f6" stroke-width="0.8"/>
  <text x="742" y="270" fill="#60a5fa" font-size="9" font-weight="700">RS.AN-1</text>
  <text x="742" y="280" fill="#93c5fd" font-size="8">Investigation of notifications</text>

  <line x1="734" y1="290" x2="960" y2="290" stroke="#1d4ed8" stroke-width="0.8"/>

  <text x="738" y="305" fill="#93c5fd" font-size="9" font-weight="600">Policy citations:</text>
  <rect x="738" y="310" width="226" height="18" rx="4" fill="#0c1a3d" stroke="#3b82f6" stroke-width="0.8"/>
  <text x="851" y="323" text-anchor="middle" fill="#60a5fa" font-size="8.5">CISA-KEV-2024-089  ·  NIST SP 800-53</text>

  <text x="738" y="342" fill="#93c5fd" font-size="8.5">Knowledge base: NIST CSF 2.0</text>
  <text x="738" y="356" fill="#93c5fd" font-size="8.5">Retrieval: 2 NIST chunks + 2 CISA chunks</text>
  <text x="738" y="370" fill="#93c5fd" font-size="8.5">Reranker score: 0.79 (top NIST chunk)</text>
  <text x="738" y="384" fill="#2563eb" font-size="8" font-style="italic">All controls from RAG context, not hard-coded</text>

  <!-- ============================================================ -->
  <!-- BOTTOM ROUTE BAR -->
  <!-- ============================================================ -->
  <rect x="10" y="393" width="960" height="76" rx="8" fill="#0f172a" stroke="#1e293b" stroke-width="1"/>

  <!-- Route decision -->
  <rect x="20" y="403" width="130" height="56" rx="6" fill="#1a0000" stroke="#dc2626" stroke-width="1.5"/>
  <text x="85" y="423" text-anchor="middle" fill="#fca5a5" font-size="9" font-weight="600" letter-spacing="0.5">ROUTE DECISION</text>
  <text x="85" y="440" text-anchor="middle" fill="#ef4444" font-size="16" font-weight="800">ESCALATE</text>
  <text x="85" y="454" text-anchor="middle" fill="#dc2626" font-size="8">HITL: interrupt_before audit</text>

  <line x1="160" y1="403" x2="160" y2="462" stroke="#1e293b" stroke-width="1"/>

  <text x="175" y="417" fill="#f1f5f9" font-size="10" font-weight="600">SOC Tier 2 review within 4 hours</text>
  <text x="175" y="432" fill="#64748b" font-size="9">Graph paused at audit node  ·  Analyst override captured via POST /human-review/override</text>
  <text x="175" y="447" fill="#64748b" font-size="9">Full audit record at GET /audit/AUDIT-B7E2  ·  LangSmith trace: run-b7e24a1f  ·  Chunk IDs only (no raw PII)</text>
  <text x="175" y="462" fill="#334155" font-size="8.5">Pipeline v1.0.0  ·  build_graph() — HITL variant  ·  LangSmith project: agentreliabilitylab</text>
</svg>
